<mxfile host="Electron" modified="2023-05-08T09:19:50.484Z" agent="Mozilla/5.0 (Windows NT 10.0; Win64; x64) AppleWebKit/537.36 (KHTML, like Gecko) draw.io/21.2.1 Chrome/112.0.5615.87 Electron/24.1.2 Safari/537.36" etag="k8u5VcP-LxJab_4QbXUH" version="21.2.1" type="device">
  <diagram name="Page-1" id="EOqGlwM0SDcMw4HovF-S">
    <mxGraphModel dx="2741" dy="1093" grid="1" gridSize="10" guides="1" tooltips="1" connect="1" arrows="1" fold="1" page="1" pageScale="1" pageWidth="850" pageHeight="1100" math="0" shadow="0">
      <root>
        <mxCell id="0" />
        <mxCell id="1" parent="0" />
        <mxCell id="qlt_ohdUnZLZHJKGSqil-2" style="edgeStyle=orthogonalEdgeStyle;rounded=0;orthogonalLoop=1;jettySize=auto;html=1;exitX=0;exitY=0.3333333333333333;exitDx=0;exitDy=0;exitPerimeter=0;" parent="1" source="qlt_ohdUnZLZHJKGSqil-1" edge="1">
          <mxGeometry relative="1" as="geometry">
            <mxPoint x="450" y="200" as="targetPoint" />
            <Array as="points">
              <mxPoint x="450" y="90" />
              <mxPoint x="450" y="190" />
            </Array>
          </mxGeometry>
        </mxCell>
        <mxCell id="qlt_ohdUnZLZHJKGSqil-1" value="Petugas" style="shape=umlActor;verticalLabelPosition=bottom;verticalAlign=top;html=1;" parent="1" vertex="1">
          <mxGeometry x="550" y="40" width="80" height="150" as="geometry" />
        </mxCell>
        <mxCell id="qlt_ohdUnZLZHJKGSqil-7" value="Memberikan, Mengubah tanggapan dan status pelaporan" style="rounded=1;whiteSpace=wrap;html=1;arcSize=43;" parent="1" vertex="1">
          <mxGeometry x="370" y="200" width="160" height="100" as="geometry" />
        </mxCell>
        <mxCell id="qlt_ohdUnZLZHJKGSqil-8" value="Disposisi pelaporan" style="rounded=1;whiteSpace=wrap;html=1;arcSize=43;" parent="1" vertex="1">
          <mxGeometry x="380" y="400" width="160" height="100" as="geometry" />
        </mxCell>
        <mxCell id="qlt_ohdUnZLZHJKGSqil-9" value="" style="endArrow=none;dashed=1;html=1;dashPattern=1 3;strokeWidth=2;rounded=0;entryX=0.5;entryY=1;entryDx=0;entryDy=0;" parent="1" target="qlt_ohdUnZLZHJKGSqil-7" edge="1">
          <mxGeometry width="50" height="50" relative="1" as="geometry">
            <mxPoint x="450" y="340" as="sourcePoint" />
            <mxPoint x="450" y="330" as="targetPoint" />
          </mxGeometry>
        </mxCell>
        <mxCell id="qlt_ohdUnZLZHJKGSqil-12" style="edgeStyle=orthogonalEdgeStyle;rounded=0;orthogonalLoop=1;jettySize=auto;html=1;exitX=0.5;exitY=1;exitDx=0;exitDy=0;dashed=1;" parent="1" source="qlt_ohdUnZLZHJKGSqil-10" edge="1">
          <mxGeometry relative="1" as="geometry">
            <mxPoint x="450" y="400" as="targetPoint" />
            <Array as="points">
              <mxPoint x="450" y="390" />
              <mxPoint x="450" y="390" />
            </Array>
          </mxGeometry>
        </mxCell>
        <mxCell id="qlt_ohdUnZLZHJKGSqil-10" value="&amp;lt;extends&amp;gt;" style="text;html=1;strokeColor=none;fillColor=none;align=center;verticalAlign=middle;whiteSpace=wrap;rounded=0;dashed=1;" parent="1" vertex="1">
          <mxGeometry x="420" y="340" width="60" height="30" as="geometry" />
        </mxCell>
        <mxCell id="qlt_ohdUnZLZHJKGSqil-14" style="edgeStyle=orthogonalEdgeStyle;rounded=0;orthogonalLoop=1;jettySize=auto;html=1;exitX=0.5;exitY=0;exitDx=0;exitDy=0;exitPerimeter=0;entryX=1;entryY=0.5;entryDx=0;entryDy=0;" parent="1" source="qlt_ohdUnZLZHJKGSqil-13" target="qlt_ohdUnZLZHJKGSqil-19" edge="1">
          <mxGeometry relative="1" as="geometry">
            <mxPoint x="370" y="380" as="targetPoint" />
            <Array as="points">
              <mxPoint x="670" y="380" />
            </Array>
          </mxGeometry>
        </mxCell>
        <mxCell id="qlt_ohdUnZLZHJKGSqil-26" style="edgeStyle=orthogonalEdgeStyle;rounded=0;orthogonalLoop=1;jettySize=auto;html=1;exitX=0;exitY=0.3333333333333333;exitDx=0;exitDy=0;exitPerimeter=0;entryX=1;entryY=0.5;entryDx=0;entryDy=0;" parent="1" source="qlt_ohdUnZLZHJKGSqil-13" target="qlt_ohdUnZLZHJKGSqil-8" edge="1">
          <mxGeometry relative="1" as="geometry" />
        </mxCell>
        <mxCell id="qlt_ohdUnZLZHJKGSqil-13" value="Admin" style="shape=umlActor;verticalLabelPosition=bottom;verticalAlign=top;html=1;" parent="1" vertex="1">
          <mxGeometry x="630" y="400" width="80" height="150" as="geometry" />
        </mxCell>
        <mxCell id="qlt_ohdUnZLZHJKGSqil-16" value="" style="shape=stencil(fZbdcgIhDIWfZm8zQAg/17Z9j85U606tdqz9e/tmZ0c0uJ47xP0I5JwEBl59bp8/1kNwn6fj4W39M76ctgM/DCGM++36OJ50NPDjwKvN4bh+PR6+9i/z74/n6ctp9H74nlb4nbmSKZeJCu5vngmZ6jzzNAO7cX8FVKEsBuBKrgKg9oAE8gkCbLeUhEoEQKSUDZDLeWYRKIl8MEDRmHwfyBrBG6Amyu4+kDxxMoB3jhwgYu7TVAsVkFcWCs4CTBEoF4RctKeOxHIf8IXYpikHikAIf+MNUW94AGSSaoAoFIE3AlOyeWU+p2E5S9yfQZcQILVuQOwZdJNoS9Ls3wA5u2XZTIHECqeJ9kDpSaauRiNVcAY1QhdBzeLBli5WazpkSsBLV25uRaqWRyFawTQzRRIQYirJzq5atkBqLfouwqUxLBepthWb10vrWZY6UOAeyKCCtDV625mm9gmUC4Wc3VLJMMIE1BsA2FW9JraVlQB7n3c9oMKhCLEvIM1zBPZ25/umNQ1tVEC2G+fFCC8g398O2hNQuQlVu752DBfA+q0ptnqO5JFmeuIuo9DY7KjY71UxdJV4EntifPWorW++R/dC4t7V3DlIB5cHx2bc7eb3yvX//QNFp+bHDT/+Aw==);lineShape=1;" parent="1" vertex="1">
          <mxGeometry x="493.8679608424759" y="445.8753124585194" width="4.672539772115215" height="4.665236216357243" as="geometry" />
        </mxCell>
        <mxCell id="qlt_ohdUnZLZHJKGSqil-19" value="Login" style="rounded=1;whiteSpace=wrap;html=1;arcSize=43;" parent="1" vertex="1">
          <mxGeometry x="170" y="330" width="160" height="100" as="geometry" />
        </mxCell>
        <mxCell id="qlt_ohdUnZLZHJKGSqil-21" value="" style="endArrow=none;dashed=1;html=1;dashPattern=1 3;strokeWidth=2;rounded=0;" parent="1" edge="1">
          <mxGeometry width="50" height="50" relative="1" as="geometry">
            <mxPoint x="249.5" y="270" as="sourcePoint" />
            <mxPoint x="250" y="250" as="targetPoint" />
          </mxGeometry>
        </mxCell>
        <mxCell id="qlt_ohdUnZLZHJKGSqil-22" value="&amp;lt;extends&amp;gt;" style="text;html=1;strokeColor=none;fillColor=none;align=center;verticalAlign=middle;whiteSpace=wrap;rounded=0;dashed=1;" parent="1" vertex="1">
          <mxGeometry x="220" y="270" width="60" height="30" as="geometry" />
        </mxCell>
        <mxCell id="qlt_ohdUnZLZHJKGSqil-23" style="edgeStyle=orthogonalEdgeStyle;rounded=0;orthogonalLoop=1;jettySize=auto;html=1;exitX=0.5;exitY=1;exitDx=0;exitDy=0;dashed=1;" parent="1" edge="1">
          <mxGeometry relative="1" as="geometry">
            <mxPoint x="249.5" y="300" as="sourcePoint" />
            <mxPoint x="249.5" y="330" as="targetPoint" />
            <Array as="points">
              <mxPoint x="249.5" y="320" />
              <mxPoint x="249.5" y="320" />
            </Array>
          </mxGeometry>
        </mxCell>
        <mxCell id="qlt_ohdUnZLZHJKGSqil-24" value="Register" style="rounded=1;whiteSpace=wrap;html=1;arcSize=43;" parent="1" vertex="1">
          <mxGeometry x="170" y="150" width="160" height="100" as="geometry" />
        </mxCell>
        <mxCell id="qlt_ohdUnZLZHJKGSqil-27" style="edgeStyle=orthogonalEdgeStyle;rounded=0;orthogonalLoop=1;jettySize=auto;html=1;exitX=1;exitY=0.3333333333333333;exitDx=0;exitDy=0;exitPerimeter=0;entryX=0;entryY=0.5;entryDx=0;entryDy=0;" parent="1" source="qlt_ohdUnZLZHJKGSqil-25" target="qlt_ohdUnZLZHJKGSqil-29" edge="1">
          <mxGeometry relative="1" as="geometry">
            <mxPoint x="160" y="520" as="targetPoint" />
            <Array as="points">
              <mxPoint x="100" y="430" />
              <mxPoint x="100" y="520" />
            </Array>
          </mxGeometry>
        </mxCell>
        <mxCell id="qlt_ohdUnZLZHJKGSqil-25" value="Masyarakat" style="shape=umlActor;verticalLabelPosition=bottom;verticalAlign=top;html=1;" parent="1" vertex="1">
          <mxGeometry x="-60" y="380" width="80" height="150" as="geometry" />
        </mxCell>
        <mxCell id="qlt_ohdUnZLZHJKGSqil-29" value="Menambahkan Laporan" style="rounded=1;whiteSpace=wrap;html=1;arcSize=43;" parent="1" vertex="1">
          <mxGeometry x="170" y="470" width="160" height="100" as="geometry" />
        </mxCell>
        <mxCell id="qlt_ohdUnZLZHJKGSqil-31" style="edgeStyle=orthogonalEdgeStyle;rounded=0;orthogonalLoop=1;jettySize=auto;html=1;entryX=0;entryY=0.5;entryDx=0;entryDy=0;" parent="1" target="qlt_ohdUnZLZHJKGSqil-19" edge="1">
          <mxGeometry relative="1" as="geometry">
            <mxPoint x="160" y="490" as="targetPoint" />
            <mxPoint x="10" y="410" as="sourcePoint" />
            <Array as="points">
              <mxPoint x="10" y="410" />
              <mxPoint x="100" y="410" />
              <mxPoint x="100" y="380" />
            </Array>
          </mxGeometry>
        </mxCell>
        <mxCell id="qlt_ohdUnZLZHJKGSqil-33" value="" style="endArrow=none;dashed=1;html=1;dashPattern=1 3;strokeWidth=2;rounded=0;entryX=0;entryY=0.5;entryDx=0;entryDy=0;" parent="1" target="qlt_ohdUnZLZHJKGSqil-8" edge="1">
          <mxGeometry width="50" height="50" relative="1" as="geometry">
            <mxPoint x="350" y="550" as="sourcePoint" />
            <mxPoint x="400" y="600" as="targetPoint" />
            <Array as="points">
              <mxPoint x="350" y="450" />
            </Array>
          </mxGeometry>
        </mxCell>
        <mxCell id="qlt_ohdUnZLZHJKGSqil-35" style="edgeStyle=orthogonalEdgeStyle;rounded=0;orthogonalLoop=1;jettySize=auto;html=1;exitX=0.5;exitY=1;exitDx=0;exitDy=0;dashed=1;entryX=1;entryY=0.5;entryDx=0;entryDy=0;" parent="1" source="qlt_ohdUnZLZHJKGSqil-34" target="qlt_ohdUnZLZHJKGSqil-36" edge="1">
          <mxGeometry relative="1" as="geometry">
            <mxPoint x="350" y="700" as="targetPoint" />
          </mxGeometry>
        </mxCell>
        <mxCell id="qlt_ohdUnZLZHJKGSqil-34" value="&amp;lt;extends&amp;gt;" style="text;html=1;strokeColor=none;fillColor=none;align=center;verticalAlign=middle;whiteSpace=wrap;rounded=0;dashed=1;" parent="1" vertex="1">
          <mxGeometry x="320" y="560" width="60" height="30" as="geometry" />
        </mxCell>
        <mxCell id="qlt_ohdUnZLZHJKGSqil-36" value="Melihat Laporan dan Progress Pelaporan" style="rounded=1;whiteSpace=wrap;html=1;arcSize=43;" parent="1" vertex="1">
          <mxGeometry x="170" y="610" width="160" height="100" as="geometry" />
        </mxCell>
        <mxCell id="qlt_ohdUnZLZHJKGSqil-37" style="edgeStyle=orthogonalEdgeStyle;rounded=0;orthogonalLoop=1;jettySize=auto;html=1;entryX=0;entryY=0.5;entryDx=0;entryDy=0;" parent="1" target="qlt_ohdUnZLZHJKGSqil-36" edge="1">
          <mxGeometry relative="1" as="geometry">
            <mxPoint x="170" y="445" as="targetPoint" />
            <mxPoint x="10" y="450" as="sourcePoint" />
            <Array as="points">
              <mxPoint x="80" y="450" />
              <mxPoint x="80" y="660" />
            </Array>
          </mxGeometry>
        </mxCell>
        <mxCell id="qlt_ohdUnZLZHJKGSqil-38" value="Filtering Pengaduan" style="rounded=1;whiteSpace=wrap;html=1;arcSize=43;" parent="1" vertex="1">
          <mxGeometry x="170" y="750" width="160" height="100" as="geometry" />
        </mxCell>
        <mxCell id="qlt_ohdUnZLZHJKGSqil-39" style="edgeStyle=orthogonalEdgeStyle;rounded=0;orthogonalLoop=1;jettySize=auto;html=1;entryX=0;entryY=0.5;entryDx=0;entryDy=0;" parent="1" target="qlt_ohdUnZLZHJKGSqil-38" edge="1">
          <mxGeometry relative="1" as="geometry">
            <mxPoint x="170" y="670" as="targetPoint" />
            <mxPoint x="10" y="470" as="sourcePoint" />
            <Array as="points">
              <mxPoint x="60" y="470" />
              <mxPoint x="60" y="800" />
            </Array>
          </mxGeometry>
        </mxCell>
        <mxCell id="qlt_ohdUnZLZHJKGSqil-41" value="Menggenerate Pelaporan" style="rounded=1;whiteSpace=wrap;html=1;arcSize=43;" parent="1" vertex="1">
          <mxGeometry x="380" y="540" width="160" height="100" as="geometry" />
        </mxCell>
        <mxCell id="qlt_ohdUnZLZHJKGSqil-42" style="edgeStyle=orthogonalEdgeStyle;rounded=0;orthogonalLoop=1;jettySize=auto;html=1;exitX=0;exitY=0.3333333333333333;exitDx=0;exitDy=0;exitPerimeter=0;entryX=1;entryY=0.5;entryDx=0;entryDy=0;" parent="1" target="qlt_ohdUnZLZHJKGSqil-41" edge="1">
          <mxGeometry relative="1" as="geometry">
            <mxPoint x="650" y="474.5" as="sourcePoint" />
            <mxPoint x="560" y="474.5" as="targetPoint" />
          </mxGeometry>
        </mxCell>
        <mxCell id="qlt_ohdUnZLZHJKGSqil-43" value="Melihat Log Aktifitas" style="rounded=1;whiteSpace=wrap;html=1;arcSize=43;" parent="1" vertex="1">
          <mxGeometry x="380" y="670" width="160" height="100" as="geometry" />
        </mxCell>
        <mxCell id="qlt_ohdUnZLZHJKGSqil-44" style="edgeStyle=orthogonalEdgeStyle;rounded=0;orthogonalLoop=1;jettySize=auto;html=1;entryX=1;entryY=0.5;entryDx=0;entryDy=0;" parent="1" target="qlt_ohdUnZLZHJKGSqil-43" edge="1">
          <mxGeometry relative="1" as="geometry">
            <mxPoint x="650" y="485" as="sourcePoint" />
            <mxPoint x="550" y="600" as="targetPoint" />
            <Array as="points">
              <mxPoint x="610" y="485" />
              <mxPoint x="610" y="720" />
            </Array>
          </mxGeometry>
        </mxCell>
        <mxCell id="qlt_ohdUnZLZHJKGSqil-45" style="edgeStyle=orthogonalEdgeStyle;rounded=0;orthogonalLoop=1;jettySize=auto;html=1;exitX=0;exitY=0.3333333333333333;exitDx=0;exitDy=0;exitPerimeter=0;" parent="1" target="qlt_ohdUnZLZHJKGSqil-38" edge="1">
          <mxGeometry relative="1" as="geometry">
            <mxPoint x="640" y="120" as="sourcePoint" />
            <mxPoint x="731" y="680" as="targetPoint" />
            <Array as="points">
              <mxPoint x="730" y="120" />
              <mxPoint x="730" y="236" />
              <mxPoint x="731" y="236" />
              <mxPoint x="731" y="800" />
            </Array>
          </mxGeometry>
        </mxCell>
        <mxCell id="qlt_ohdUnZLZHJKGSqil-46" style="edgeStyle=orthogonalEdgeStyle;rounded=0;orthogonalLoop=1;jettySize=auto;html=1;entryX=1;entryY=0.43;entryDx=0;entryDy=0;entryPerimeter=0;" parent="1" target="qlt_ohdUnZLZHJKGSqil-38" edge="1">
          <mxGeometry relative="1" as="geometry">
            <mxPoint x="670" y="570" as="sourcePoint" />
            <mxPoint x="570" y="705.5" as="targetPoint" />
            <Array as="points">
              <mxPoint x="670" y="793" />
            </Array>
          </mxGeometry>
        </mxCell>
      </root>
    </mxGraphModel>
  </diagram>
</mxfile>
